<svg xmlns="http://www.w3.org/2000/svg" viewBox="0 0 900 1000" width="900" height="1000">
  <!-- Background -->
  <rect width="900" height="1000" fill="#e8e8ff"/>

  <!-- Title -->
  <rect x="50" y="10" width="450" height="45" rx="4" fill="#AB1012"/>
  <text x="60" y="40" fill="white" font-family="Arial, sans-serif" font-size="20" font-weight="bold">Session Hooks not yet implemented in C#!</text>

  <!-- Define arrow marker -->
  <defs>
    <marker id="arrowhead" markerWidth="10" markerHeight="10" refX="5" refY="5" orient="auto">
      <polygon points="0 0, 10 5, 0 10" fill="#333"/>
    </marker>
    <marker id="dashedarrowhead" markerWidth="10" markerHeight="10" refX="5" refY="5" orient="auto">
      <polygon points="0 0, 10 5, 0 10" fill="#666"/>
    </marker>
  </defs>


  <!-- Optional Hooks Section (left side) -->
  <rect x="30" y="120" width="200" height="830" rx="8" fill="rgba(44, 82, 130, 0.1)" stroke="#2c5282" stroke-width="2" stroke-dasharray="8,4"/>
  <text x="130" y="145" text-anchor="middle" fill="#2c5282" font-family="Arial, sans-serif" font-size="13" font-weight="bold">Optional Session Hooks</text>

  <!-- Hook Registration -->
  <rect x="50" y="160" width="160" height="35" rx="4" fill="#2c5282"/>
  <text x="130" y="182" text-anchor="middle" fill="white" font-family="Arial, sans-serif" font-size="12">Hook Registration</text>

  <!-- Arrow -->
  <line x1="130" y1="195" x2="130" y2="220" stroke="#2c5282" stroke-width="2" marker-end="url(#dashedarrowhead)"/>

  <!-- Hook Priority Sorting -->
  <rect x="50" y="230" width="160" height="35" rx="4" fill="#2c5282"/>
  <text x="130" y="252" text-anchor="middle" fill="white" font-family="Arial, sans-serif" font-size="12">Priority Sorting</text>

  <!-- Arrow -->
  <line x1="130" y1="265" x2="130" y2="290" stroke="#2c5282" stroke-width="2" marker-end="url(#dashedarrowhead)"/>

  <!-- Hook Startup -->
  <rect x="50" y="300" width="160" height="35" rx="4" fill="#2c5282"/>
  <text x="130" y="322" text-anchor="middle" fill="white" font-family="Arial, sans-serif" font-size="12">Hooks StartUp()</text>

  <!-- Dashed arrow from hooks StartUp to main flow start -->
  <line x1="210" y1="318" x2="380" y2="160" stroke="#2c5282" stroke-width="2" stroke-dasharray="5,3" marker-end="url(#dashedarrowhead)"/>

  <!-- Main Test Execution Flow (center) -->

  <!-- Test Session Start -->
  <rect x="380" y="120" width="140" height="40" rx="4" fill="#5d41A4"/>
  <text x="450" y="145" text-anchor="middle" fill="white" font-family="Arial, sans-serif" font-size="14">Test Session Start</text>

  <!-- Arrow (conditional - only if hooks succeed) -->
  <line x1="450" y1="160" x2="450" y2="230" stroke="#333" stroke-width="2" stroke-dasharray="5,3" marker-end="url(#dashedarrowhead)"/>

  <!-- Conditional note -->
  <rect x="470" y="180" width="180" height="30" rx="3" fill="white" stroke="#ddd"/>
  <text x="560" y="200" text-anchor="middle" fill="#666" font-family="Arial, sans-serif" font-size="11" font-style="italic">if hooks StartUp succeed</text>

  <!-- TestSuite Execution Group (including before/after) -->
  <rect x="300" y="240" width="340" height="560" rx="12" fill="rgba(220, 220, 220, 0.3)" stroke="#666" stroke-width="2" stroke-dasharray="8,4"/>
  <text x="470" y="265" text-anchor="middle" fill="#333" font-family="Arial, sans-serif" font-size="14" font-weight="500">TestSuite Execution</text>

  <!-- Before() -->
  <rect x="390" y="290" width="120" height="40" rx="4" fill="#5d4144"/>
  <text x="450" y="315" text-anchor="middle" fill="white" font-family="Arial, sans-serif" font-size="14">Before()</text>

  <!-- Arrow -->
  <line x1="450" y1="330" x2="450" y2="360" stroke="#333" stroke-width="2" marker-end="url(#arrowhead)"/>

  <!-- TestCase Execution Inner Group -->
  <rect x="330" y="370" width="280" height="320" rx="10" fill="rgba(200, 200, 200, 0.2)" stroke="#666" stroke-width="1" stroke-dasharray="5,2"/>
  <text x="470" y="395" text-anchor="middle" fill="#555" font-family="Arial, sans-serif" font-size="13" font-weight="500">TestCase Execution</text>

  <!-- BeforeTest() -->
  <rect x="380" y="420" width="140" height="40" rx="4" fill="#1d3A44"/>
  <text x="450" y="445" text-anchor="middle" fill="white" font-family="Arial, sans-serif" font-size="14">BeforeTest()</text>

  <!-- Arrow -->
  <line x1="450" y1="460" x2="450" y2="490" stroke="#333" stroke-width="2" marker-end="url(#arrowhead)"/>

  <!-- TestCase() -->
  <rect x="380" y="500" width="140" height="40" rx="4" fill="#4d4A44"/>
  <text x="450" y="525" text-anchor="middle" fill="white" font-family="Arial, sans-serif" font-size="14">TestCase()</text>

  <!-- Arrow -->
  <line x1="450" y1="540" x2="450" y2="570" stroke="#333" stroke-width="2" marker-end="url(#arrowhead)"/>

  <!-- AfterTest() -->
  <rect x="380" y="580" width="140" height="40" rx="4" fill="#1d3A44"/>
  <text x="450" y="605" text-anchor="middle" fill="white" font-family="Arial, sans-serif" font-size="14">AfterTest()</text>

  <!-- Loop arrows indicating repetition -->
  <path d="M 540 480 Q 590 430, 590 530 Q 590 630, 540 580"
        fill="none" stroke="#666" stroke-width="2" stroke-dasharray="5,3"/>
  <line x1="540" y1="580" x2="530" y2="575" stroke="#666" stroke-width="2"/>
  <line x1="540" y1="580" x2="530" y2="585" stroke="#666" stroke-width="2"/>

  <!-- Loop annotation -->
  <text x="610" y="510" fill="#666" font-family="Arial, sans-serif" font-size="11" font-style="italic">Repeat for</text>
  <text x="610" y="525" fill="#666" font-family="Arial, sans-serif" font-size="11" font-style="italic">each test</text>

  <!-- Arrow from test group to after -->
  <line x1="450" y1="690" x2="450" y2="720" stroke="#333" stroke-width="2" marker-end="url(#arrowhead)"/>

  <!-- After() -->
  <rect x="390" y="730" width="120" height="40" rx="4" fill="#5d4144"/>
  <text x="450" y="755" text-anchor="middle" fill="white" font-family="Arial, sans-serif" font-size="14">After()</text>

  <!-- Arrow from TestSuite group -->
  <line x1="450" y1="800" x2="450" y2="830" stroke="#333" stroke-width="2" marker-end="url(#arrowhead)"/>

  <!-- Test Session End -->
  <rect x="380" y="840" width="140" height="40" rx="4" fill="#5d41A4"/>
  <text x="450" y="865" text-anchor="middle" fill="white" font-family="Arial, sans-serif" font-size="14">Test Session End</text>

  <!-- Hook Shutdown -->
  <rect x="50" y="880" width="160" height="35" rx="4" fill="#2c5282"/>
  <text x="130" y="902" text-anchor="middle" fill="white" font-family="Arial, sans-serif" font-size="12">Hooks ShutDown()</text>

  <!-- Dashed arrow from main flow end to hook ShutDown -->
  <line x1="380" y1="860" x2="210" y2="897" stroke="#2c5282" stroke-width="2" stroke-dasharray="5,3" marker-end="url(#dashedarrowhead)"/>

  <!-- Legend/Notes Section (right side) -->
  <rect x="680" y="300" width="200" height="400" rx="8" fill="white" stroke="#ddd" stroke-width="1"/>
  <text x="780" y="325" text-anchor="middle" fill="#333" font-family="Arial, sans-serif" font-size="13" font-weight="bold">Execution Levels</text>

  <!-- Legend items -->
  <rect x="700" y="340" width="15" height="15" rx="2" fill="#2c5282"/>
  <text x="725" y="352" fill="#333" font-family="Arial, sans-serif" font-size="12">Session hooks (optional)</text>

  <rect x="700" y="370" width="15" height="15" rx="2" fill="#5d4144"/>
  <text x="725" y="382" fill="#333" font-family="Arial, sans-serif" font-size="12">Suite level hooks</text>

  <rect x="700" y="400" width="15" height="15" rx="2" fill="#1d3A44"/>
  <text x="725" y="412" fill="#333" font-family="Arial, sans-serif" font-size="12">Test level hooks</text>

  <!-- Divider -->
  <line x1="690" y1="430" x2="870" y2="430" stroke="#ddd" stroke-width="1"/>

  <!-- Notes -->
  <text x="700" y="455" fill="#666" font-family="Arial, sans-serif" font-size="11" font-weight="bold">Execution Order:</text>
  <text x="700" y="475" fill="#666" font-family="Arial, sans-serif" font-size="10">1. Hook Registration</text>
  <text x="700" y="490" fill="#666" font-family="Arial, sans-serif" font-size="10">2. Hook Priority Sorting</text>
  <text x="700" y="505" fill="#666" font-family="Arial, sans-serif" font-size="10">3. Hooks StartUp()</text>
  <text x="700" y="520" fill="#666" font-family="Arial, sans-serif" font-size="10">4. TestSuite:</text>
  <text x="715" y="535" fill="#666" font-family="Arial, sans-serif" font-size="10">• Before()</text>
  <text x="715" y="550" fill="#666" font-family="Arial, sans-serif" font-size="10">• For each test:</text>
  <text x="730" y="565" fill="#666" font-family="Arial, sans-serif" font-size="10">- BeforeTest()</text>
  <text x="730" y="580" fill="#666" font-family="Arial, sans-serif" font-size="10">- TestCase()</text>
  <text x="730" y="595" fill="#666" font-family="Arial, sans-serif" font-size="10">- AfterTest()</text>
  <text x="715" y="610" fill="#666" font-family="Arial, sans-serif" font-size="10">• After()</text>
  <text x="700" y="625" fill="#666" font-family="Arial, sans-serif" font-size="10">5. Hooks ShutDown()</text>

  <!-- Important note -->
  <rect x="690" y="645" width="180" height="45" rx="3" fill="#ffffcc" stroke="#e6b800"/>
  <text x="780" y="663" text-anchor="middle" fill="#806600" font-family="Arial, sans-serif" font-size="10" font-weight="bold">Important:</text>
  <text x="780" y="678" text-anchor="middle" fill="#806600" font-family="Arial, sans-serif" font-size="9">TestSuite only runs if all</text>
  <text x="780" y="688" text-anchor="middle" fill="#806600" font-family="Arial, sans-serif" font-size="9">hooks StartUp successfully</text>
</svg>
